<?xml version="1.0" encoding="UTF-8" standalone="no"?>
<svg
   width="57.197266"
   height="57.703125"
   viewBox="0 0 57.197266 57.703125"
   fill="none"
   version="1.1"
   id="svg12"
   xmlns="http://www.w3.org/2000/svg">
  <defs
     id="defs12" />
  <path
     d="M 28.597656,0 C 12.803256,0 0,12.917362 0,28.851562 0,36.203221 2.7294864,42.909014 7.2167969,48.003906 L 20.552734,32.085937 29.730469,17.753906 24.386719,15.027344 16.65625,22.003906 c -0.6914,0.6975 -1.822272,0.633947 -2.513672,-0.126953 -0.6914,-0.6975 -0.6293,-1.839609 0.125,-2.537109 l 8.548828,-7.798828 c 0.5657,-0.5073 1.318366,-0.571007 2.009766,-0.253907 l 10.246094,5.199219 c 1.0685,0.8243 2.137278,1.775363 3.080078,2.726563 l 3.457031,6.785156 7.164062,-4.3125 c 0.8171,-0.5072 1.948372,-0.252935 2.451172,0.634765 0.5028,0.8244 0.252947,1.965357 -0.626953,2.472657 l -8.611328,5.199218 c -0.3143,0.1902 -0.629059,0.253907 -0.943359,0.253907 -0.6285,0 -1.193513,-0.316919 -1.507813,-0.824219 l -3.771484,-5.960938 -6.097656,9.638672 6.726562,1.585938 c 0.7542,0.1268 1.318613,0.632578 1.632813,1.330078 0.2515,0.6975 0.19,1.52215 -0.25,2.15625 l -7.667969,12.238281 c -0.6914,1.0145 -2.011878,1.267966 -3.017578,0.697266 -1.1313,-0.6341 -1.50946,-2.028522 -0.88086,-3.169922 l 5.972657,-9.447266 -8.738282,-2.029297 -12.763671,14.871094 c 4.903334,3.982854 11.132785,6.371094 17.917968,6.371094 15.7943,0 28.59961,-12.917462 28.59961,-28.851563 C 57.197266,12.917362 44.391956,0 28.597656,0 Z"
     style="fill:#ff0101"
     id="path14" />
  <path
     d="m 40.9174,16.423 c 2.6382,0 4.7768,-2.1576 4.7768,-4.8191 0,-2.66151 -2.1386,-4.81911 -4.7768,-4.81911 -2.6382,0 -4.7768,2.1576 -4.7768,4.81911 0,2.6615 2.1386,4.8191 4.7768,4.8191 z"
     fill="#020203"
     id="path10" />
  <path
     d="m 10.679688,51.332031 12.763671,-14.871094 8.738282,2.029297 -5.972657,9.447266 c -0.6286,1.1414 -0.25044,2.535822 0.88086,3.169922 1.0057,0.5707 2.326178,0.317234 3.017578,-0.697266 l 7.667969,-12.238281 c 0.44,-0.6341 0.5015,-1.45875 0.25,-2.15625 -0.3142,-0.6975 -0.878613,-1.203278 -1.632813,-1.330078 l -6.726562,-1.585938 6.097656,-9.638672 3.771484,5.960938 c 0.3143,0.5073 0.879313,0.824219 1.507813,0.824219 0.3143,0 0.629059,-0.06371 0.943359,-0.253907 l 8.611328,-5.199218 c 0.8799,-0.5073 1.129753,-1.648257 0.626953,-2.472657 -0.5028,-0.8877 -1.634072,-1.141965 -2.451172,-0.634765 l -7.164062,4.3125 -3.457031,-6.785156 c -0.9428,-0.9512 -2.011578,-1.902263 -3.080078,-2.726563 L 24.826172,11.287109 c -0.6914,-0.3171 -1.444066,-0.253393 -2.009766,0.253907 l -8.548828,7.798828 c -0.7543,0.6975 -0.8164,1.839609 -0.125,2.537109 0.6914,0.7609 1.822272,0.824453 2.513672,0.126953 l 7.730469,-6.976562 5.34375,2.726562 -9.177735,14.332031 -13.3359371,15.917969 c 1.0603797,1.203955 2.2184731,2.317317 3.4628911,3.328125 z"
     style="fill:#020203"
     id="path16" />
</svg>
